<svg id="Layer_1" data-name="Layer 1" xmlns="http://www.w3.org/2000/svg" viewBox="0 0 175.79 26.99"><defs><style>.cls-1{fill:#0b0b4d;}</style></defs><path class="cls-1" d="M51.66.58a18.08,18.08,0,0,0-11.15.69c-2.57.94-5.3,2.38-6.12,5.89l-.09.35L34,7.3c-2.26-1.61-4.6-1.65-7.16-.12l-.23.13L24.71,3.64h.94l1.78,0,6-.1c.94,0,1.1-.51,1.14-.88a1,1,0,0,0-.2-.78,1.11,1.11,0,0,0-.87-.29c-1.82,0-3.65.07-5.47.12l-5.8.12a2.08,2.08,0,0,1-.93-.15A19,19,0,0,0,9.58.45,11.12,11.12,0,0,0,.47,9.62c-.16.81-.25,1.65-.34,2.46,0,.38-.08.76-.13,1.14V17a.85.85,0,0,0,0,.17,4,4,0,0,1,.08.48,9.53,9.53,0,0,0,7.13,8.82,13.8,13.8,0,0,0,12.06-2.24c3.72-2.6,6.27-6.34,7.78-11.43A10.06,10.06,0,0,1,27.74,11,3.12,3.12,0,0,1,30.2,9.32a2.9,2.9,0,0,1,2.6,1.11,8.59,8.59,0,0,1,1.35,2.66,28.92,28.92,0,0,0,2.32,5.52c3.37,5.75,8.07,8.47,14.33,8.31a10,10,0,0,0,9.51-7.29,19.7,19.7,0,0,0-.14-10.81C59,4.57,56.17,1.8,51.66.58Zm-26.9,9.6a20.36,20.36,0,0,1-4.82,9.56,12.62,12.62,0,0,1-8.46,4.18q-.35,0-.69,0a8.57,8.57,0,0,1-3.55-.75,6.54,6.54,0,0,1-3.93-5.64c-.07-.68-.1-1.37-.13-2l0-.73-.16,0,0-.23c.07-.49.12-1,.18-1.5A32.1,32.1,0,0,1,3.71,9.7,7.37,7.37,0,0,1,9,4a18.22,18.22,0,0,1,11.63.22,6.52,6.52,0,0,1,3.86,3.56A3.43,3.43,0,0,1,24.76,10.18Zm33,4.81c0,.33-.05.67-.08,1a19.45,19.45,0,0,1-.28,2.39,6.51,6.51,0,0,1-5.82,5.45,12.51,12.51,0,0,1-1.71.12,11.72,11.72,0,0,1-9.16-4.56,18.79,18.79,0,0,1-3.32-6.33c-.21-.62-.47-1.24-.73-1.83-.17-.4-.34-.8-.5-1.21A1.51,1.51,0,0,1,36,9.45a1.48,1.48,0,0,0,0-.21.37.37,0,0,1,0-.14c.72-2.95,2.64-4.71,5.86-5.39a20,20,0,0,1,9.2.1,7.91,7.91,0,0,1,6.23,7c.14.91.21,1.82.28,2.78,0,.44.06.88.1,1.33V15Z"/><path class="cls-1" d="M18.8,9a10.35,10.35,0,0,0-1.9,1.31q-2.55,2.43-5,4.95a14.86,14.86,0,0,0-1.47,2,.89.89,0,0,0,.21,1.21.77.77,0,0,0,1.15,0c.59-.53,1.19-1.05,1.77-1.6q2.32-2.2,4.62-4.45c.63-.63,1.21-1.32,1.79-2a1.89,1.89,0,0,0,.25-.49A.93.93,0,0,0,18.8,9Z"/><path class="cls-1" d="M12.57,9.32c-.32-.32-.63-.16-.91.09C10.34,10.59,9,11.76,7.72,13a4.53,4.53,0,0,0-.88,1.37c-.2.42.08.8.56.92A13.31,13.31,0,0,0,9,14.47a13.6,13.6,0,0,0,3.73-4.15A.74.74,0,0,0,12.57,9.32Z"/><path class="cls-1" d="M53.59,8.28a5.6,5.6,0,0,0-.89.52A48.94,48.94,0,0,0,46.27,15a11.36,11.36,0,0,0-1,1.43,4.06,4.06,0,0,0-.28.66c.2.25.38.62.66.76a1.12,1.12,0,0,0,.88-.13,7.72,7.72,0,0,0,1.12-.95c1.92-1.83,3.84-3.66,5.73-5.52a19.58,19.58,0,0,0,1.4-1.62.78.78,0,0,0,0-1.11A.89.89,0,0,0,53.59,8.28Z"/><path class="cls-1" d="M47.62,9.13c-.14-.19-.25-.47-.45-.57a.71.71,0,0,0-.65.07c-1.46,1.3-2.92,2.61-4.34,3.95a2.73,2.73,0,0,0-.6,1c-.23.58.15,1,.74.85a4.74,4.74,0,0,0,1.41-.69,13.3,13.3,0,0,0,3.65-4.07A5.52,5.52,0,0,0,47.62,9.13Z"/><path class="cls-1" d="M80.31,16.42h5.91v3.33a7.91,7.91,0,0,1-2.85,1.45,12.75,12.75,0,0,1-3.82.57,6.71,6.71,0,0,1-5.37-2.21,9.34,9.34,0,0,1-1.92-6.3,9.27,9.27,0,0,1,1.85-6.18,6.71,6.71,0,0,1,5.4-2.17,7.27,7.27,0,0,1,3.8,1,5.63,5.63,0,0,1,2.36,2.76l4.64-1.39Q88,.95,79.51.94q-5.94,0-9.13,3.19T67.2,13.26q0,6,3.16,9.23t9,3.25a19.13,19.13,0,0,0,6.45-1.1,12.56,12.56,0,0,0,5-3.08V12.71H80.31Z"/><path class="cls-1" d="M104.2,6.55A9.17,9.17,0,0,0,97.3,9.1a9.69,9.69,0,0,0-2.46,7,9.77,9.77,0,0,0,2.46,7.07,9.06,9.06,0,0,0,6.82,2.55A9.22,9.22,0,0,0,111,23.19a9.66,9.66,0,0,0,2.51-7.07q0-4.64-2.4-7.1C109.51,7.37,107.21,6.55,104.2,6.55ZM104,22.45A3.45,3.45,0,0,1,101,20.82a8.56,8.56,0,0,1-1.07-4.7q0-6.24,4.38-6.24a3.58,3.58,0,0,1,3.1,1.48,8.18,8.18,0,0,1,1.08,4.76Q108.46,22.45,104,22.45Z"/><rect class="cls-1" x="117.8" y="0.06" width="4.81" height="3.5"/><rect class="cls-1" x="117.8" y="6.89" width="4.81" height="18.51"/><polygon class="cls-1" points="144.42 6.89 139.19 6.89 135.27 12.96 131.31 6.89 126.12 6.89 132.57 15.83 125.83 25.4 130.93 25.4 135.27 18.7 139.57 25.4 144.8 25.4 137.97 15.79 144.42 6.89"/><rect class="cls-1" x="147.98" y="6.89" width="4.81" height="18.51"/><rect class="cls-1" x="147.98" y="0.06" width="4.81" height="3.5"/><path class="cls-1" d="M173.39,9q-2.4-2.47-6.92-2.47a9.13,9.13,0,0,0-6.89,2.55,9.65,9.65,0,0,0-2.47,7,9.73,9.73,0,0,0,2.47,7.07,9,9,0,0,0,6.81,2.55,9.22,9.22,0,0,0,6.89-2.55,9.62,9.62,0,0,0,2.51-7.07Q175.79,11.49,173.39,9ZM166.3,22.45a3.43,3.43,0,0,1-3.05-1.63,8.47,8.47,0,0,1-1.08-4.7q0-6.24,4.39-6.24a3.59,3.59,0,0,1,3.1,1.48,8.26,8.26,0,0,1,1.07,4.76C170.73,20.34,169.26,22.45,166.3,22.45Z"/></svg>