<svg xmlns="http://www.w3.org/2000/svg" id="Layer_1" data-name="Layer 1" viewBox="0 0 409.64 353.13"><path d="M381.39,69.7c-32.15-32.28-81.75-37.19-120-12.29-8.26,5.38-16.32,11.08-24.76,16.14-17,10.19-35.05,14.18-53.59,4.87-11.48-5.77-22.33-12.89-33.09-20-20.8-13.74-43.47-19.57-68-15.58C45.48,48.78,20.08,69.31,6.49,103.68,3.21,112,2.1,121.13,0,129.88v16c1.16,5.71,2.05,11.48,3.55,17.09a93,93,0,0,0,17,33.7c-3.68,6.33-7.45,12.39-10.8,18.67A83.54,83.54,0,0,0,.7,246.08a25,25,0,0,1-.7,3v16c1.57,7.12,2.65,14.4,4.79,21.35,11.44,37,47,64.27,85.7,66.06,1.58.07,3.15.4,4.72.61h1.6c3.82-.41,7.67-.65,11.47-1.24,34.26-5.35,58.95-23.75,74.24-54.8,17.54-35.62,8.68-82.52-20.67-109.11-4.88-4.43-10.14-8.45-15.27-12.7.72-1.07,1.41-2,2-3.05,10.89-17.13,13.57-35.49,7.17-54.72A63.14,63.14,0,0,0,32.67,137.1c0,6.93,1.87,13.92,3.32,20.79.72,3.42,3.46,5,7,4.19,3.24-.7,4.83-3.26,4.28-7-.29-2-1.16-3.87-1.3-5.83-.45-6.48-1.7-13.11-.82-19.42a50.73,50.73,0,0,1,41.21-42.9c21.25-4,42.62,5.88,53.78,24.87,10.65,18.12,8.47,43.73-4.86,57.68q-58.71-23.07-106.22,18.4c-.49-.61-.85-1-1.15-1.44C8.64,158,6.12,128,22.32,97.74c14.83-27.67,39-42.29,70.56-43.88,18.3-.91,34.85,4.41,50.21,14.38,11.47,7.46,23,15,35.26,21,14.84,7.4,30.64,8.56,46.54,2.6,1.65-.63,3.36-1.11,5.71-1.87-16.67,31.81-16.5,62.92-.19,94.51-1.55-.47-2.42-.69-3.26-1-8.35-3.11-17-4.89-25.85-4a113.62,113.62,0,0,0-16.79,3.34c-3.91,1-5.5,4.3-4.45,7.71,1,3.07,4.07,4.57,7.79,3.72,1.16-.27,2.3-.65,3.45-1a48.68,48.68,0,0,1,30.59,1.17c12.84,4.58,24,12.14,34.95,19.91,20.66,14.59,43.39,20.78,68.68,18.06,35.65-3.83,69.34-31.49,79.35-66,2.1-7.24,3.2-14.77,4.77-22.17v-15.2a13.09,13.09,0,0,1-.68-2.24C406.6,104.5,397.08,85.46,381.39,69.7ZM89.72,173.45c0,3.72,0,7.1,0,10.48a19.66,19.66,0,0,0,.45,4.74,5.37,5.37,0,0,0,6.33,4.24,5.54,5.54,0,0,0,5.13-5.7c.11-2.26.06-4.53.07-6.8,0-2.1,0-4.21,0-6.29,18.86-.61,47.2,11.88,63.2,35.89-3.39,2-6.85,3.86-10.1,6-1.59,1.07-3.61,2.56-3.93,4.16-.39,1.9.2,5,1.54,6a8.41,8.41,0,0,0,6.88.79c4-1.58,7.66-4.16,11.44-6.33,11.38,18.17,11.41,54.06,0,72.67-3.3-1.9-6.6-3.84-9.93-5.71-4.42-2.48-7.81-1.94-9.69,1.47s-.6,6.34,3.57,8.84c3.19,1.92,6.42,3.78,9.63,5.67a4.2,4.2,0,0,1,.53.62c-15.42,21.5-36.19,33.64-63.15,36.3,0-4.37,0-8.33,0-12.3-.07-4.55-2.11-7.07-5.72-7.19-3.8-.13-6.14,2.47-6.25,7.15-.09,4,0,7.93,0,12.32C62.9,337.86,42.23,325.72,26.47,304c3.63-2.12,7-4.07,10.4-6.09,4-2.4,5.29-5.74,3.5-8.9s-5.23-3.83-9.38-1.54c-3.47,1.92-6.89,3.92-10.57,6C9.32,269,9.31,245,20.43,220.42c3.65,2.11,7.05,4.11,10.49,6,3.93,2.21,7.72,1.6,9.44-1.44s.53-6.53-3.43-8.92c-3.3-2-6.63-3.89-10.46-6.13C42.21,188.24,62.8,176.15,89.72,173.45Zm299.52.5c-3.66-2.09-7.1-4.1-10.57-6-4.11-2.28-7.65-1.68-9.43,1.52s-.48,6.49,3.53,8.9c3.19,1.92,6.41,3.79,9.61,5.69.11.06.17.21.53.68-15.37,21.47-36.16,33.52-63,36.27,0-4.2,0-8,0-11.88-.07-5-2.4-7.84-6.16-7.75s-5.76,2.79-5.83,7.58c-.05,3.59-.05,7.19-.09,10.79a5.8,5.8,0,0,1-.42,1.24c-26.39-2.53-47.09-14.77-62.86-36.53,3.66-2.14,7.1-4.11,10.5-6.17,4.11-2.48,5.28-5.66,3.37-8.88s-5.29-3.71-9.45-1.42c-1.75,1-3.47,2-5.2,3l-5.23,3c-11.16-24.32-11.09-48.39-.08-73,3.78,2.15,7.29,4.19,10.83,6.15,3.79,2.1,7.33,1.47,9.11-1.54s.82-6.4-2.95-8.71c-3.5-2.15-7.09-4.16-10.91-6.39,15.66-21.83,36.51-33.86,63.38-36.64,0,4.61-.06,8.72,0,12.83s2.23,6.69,5.72,6.82,6.08-2.46,6.22-6.8c.14-4.11,0-8.22,0-12.72,26.74,2.63,47.46,14.73,63.28,36.54-3.54,2-6.94,4-10.3,6-4.2,2.5-5.49,5.92-3.53,9.19,1.81,3,5.4,3.49,9.49,1.19,3.35-1.88,6.68-3.8,10.35-5.9C400.34,125.36,400.34,149.46,389.24,174Z"></path><path d="M299.61,272.39c-2.58-.63-5.17-1.25-7.76-1.84-5.65-1.26-9.09-4.62-10.26-10.36a39,39,0,0,0-2.39-8.83c-.95-2-3.09-3.46-5.56-6.07-2.43,2.66-4.63,4.21-5.6,6.33-1.31,2.84-1.71,6.12-2.47,9.22-1.21,5-4.18,8.2-9.22,9.43-3.1.76-6.22,1.46-9.29,2.31s-4.86,2.71-4.8,6c.07,3.11,1.84,4.9,4.69,5.7,3.07.85,6.17,1.62,9.28,2.35,5.06,1.18,8.06,4.37,9.32,9.32.78,3.1,1.51,6.2,2.33,9.29.77,2.9,2.66,4.61,5.71,4.64s5-1.63,5.8-4.52,1.58-5.63,2.17-8.5c1.18-5.67,4.39-9.21,10.17-10.39,2.73-.56,5.4-1.4,8.12-2.05,3.24-.78,5.25-2.66,5.2-6.1S302.75,273.16,299.61,272.39Zm-26.08,11.22-5.24-5.25,5.46-5,5.25,5.46Z"></path><path d="M177.58,14.58c-2.63-.06-5.26,0-8.41,0,0-2.36,0-4.33,0-6.29C169.1,2.67,167.24.06,163.29,0s-6.07,2.65-6.12,8.47c0,1.93,0,3.85,0,6.08-2.94,0-5.19,0-7.43,0-4.38.1-7.11,2.35-7.17,5.85s2.68,5.93,7,6.12c2.45.1,4.92,0,7.62,0,0,2.93-.08,5.19,0,7.44.2,4.47,2.4,7,5.95,7.08s5.82-2.54,6-7c.09-2.37,0-4.74,0-7.61,3.2,0,6,.2,8.72-.05,3.67-.33,6.29-3.16,5.88-6.29C183.3,16.65,181.2,14.67,177.58,14.58Z"></path><path d="M84.46,283.32c7.85.11,15.71,0,23.56.06,3.39,0,4.89-1.6,4.86-4.87s-1.55-4.77-5-4.68c-6,.15-11.92,0-18.35,0,0-15.53,0-30.44,0-45.34,0-4.44-1.42-5.89-5.58-5.82-4,.07-5.25,1.38-5.25,5.76q0,24.57,0,49.14C78.74,282,79.91,283.26,84.46,283.32Z"></path><path d="M325.74,137.39a9.81,9.81,0,0,1,1-.8c8-4.06,11.09-11.06,9.22-20.8-1.44-7.5-7-12-15.91-12.37-6.25-.28-12.52-.18-18.78-.24-2.91,0-4.43,1.33-4.42,4.37q0,25.77,0,51.55c0,2.85,1.54,4.07,4.1,4.44,4.64.67,6.68-1.07,6.7-5.82,0-6.22,0-12.44,0-18.51,4.75-1.43,7.53-.38,9.45,4.1,2.61,6.1,5.9,11.92,9.08,17.76,1.79,3.28,4.27,3.86,7.33,2,2.84-1.76,4.1-3.9,2.16-7.31C332.22,149.74,329.07,143.59,325.74,137.39Zm-.18-15.48c-.24,5.17-2.63,7.73-7.94,8.09-3.15.22-6.31,0-10,0,0-5.38-.13-10.18.12-14.95a3.62,3.62,0,0,1,2.49-2.44,36.49,36.49,0,0,1,7.95.22C323.35,113.53,325.8,116.66,325.56,121.91Z"></path></svg>