<svg xmlns="http://www.w3.org/2000/svg" id="Layer_1" data-name="Layer 1" viewBox="0 0 383.95 383.95"><path d="M364.34,162.6c-26.86-28.58-56.59-53.5-91.79-71.33C248.11,78.88,222.41,71,194.79,70.48c-32.46-.58-62.23,9-90.33,24.45-37.62,20.6-69,48.73-96.74,81.15-3.09,3.61-5.17,8.08-7.72,12.15v7.5c3,4.64,5.64,9.64,9.19,13.84,6.2,7.34,12.78,14.38,19.55,21.2,26.32,26.47,55.37,49.28,89.4,65.17,22.62,10.56,46.27,17.14,71.41,17.54,29.38.47,56.71-7.5,82.67-20.64,38.54-19.51,70.57-47.26,99.15-79.27,4.87-5.45,10.22-10.6,12.58-17.84v-7.5c-3-4.65-5.81-9.48-9.16-13.88A154.7,154.7,0,0,0,364.34,162.6Zm4.79,34c-27.36,32.45-58.31,60.69-95.7,81.31-20.29,11.19-41.77,19-64.87,21.87-5.45.67-10.95.83-14,1-29.48-.19-54.61-7.76-78.46-20C80,262.21,50,236.07,23.06,206.14c-2.76-3.07-5.43-6.2-8.06-9.38-2.91-3.5-3-6-.18-9.36C45.24,151.5,79.68,120.52,122.55,100,145.72,89,170.07,82.51,196,83.28c25.56.77,49.35,8.27,71.93,19.88,33,16.93,60.91,40.35,86.16,67.18,5.13,5.46,10,11.16,14.89,16.85C371.91,190.65,372,193.19,369.13,196.55Z"></path><path d="M8.09,50.93c3.19-.71,4.67-3.3,4.7-7.92,0-2.12,0-4.24,0-6.36V13c1.61-.07,2.83-.16,4-.17,8.73,0,17.46,0,26.19,0,4.6,0,7.2-1.52,7.91-4.71C51.8,4.15,49.82,1.68,46.49,0H9.75A17.14,17.14,0,0,0,0,9.75V46.49C1.68,49.83,4.16,51.8,8.09,50.93Z"></path><path d="M374.2,0H337.46c-3.34,1.68-5.31,4.15-4.44,8.08.7,3.21,3.28,4.69,7.9,4.72,2,0,4,0,6,0h24.25V17.2c0,9,0,18,0,26.94,0,3.83,1.91,6.31,5,6.86,3.83.67,6.11-1.36,7.73-4.51V9.75A17.23,17.23,0,0,0,374.2,0Z"></path><path d="M50.93,375.86c-.71-3.2-3.3-4.68-7.91-4.71H13c-.08-1.6-.18-2.81-.18-4,0-8.6-.08-17.21,0-25.81,0-3.63-.52-6.81-4.39-8.18-3.31-1.19-5.81.17-8.44,4.33V374.2A17.2,17.2,0,0,0,9.75,384H46.49C49.8,382.26,51.81,379.8,50.93,375.86Z"></path><path d="M375.5,333.12c-3.87,1.38-4.54,4.56-4.36,8.19.1,2,0,4,0,6V371c-1.61.07-2.83.17-4,.17-8.61,0-17.21.07-25.82,0-3.63,0-6.81.53-8.18,4.4-1.18,3.32.2,5.85,4.34,8.44H374.2A17.31,17.31,0,0,0,384,374.2V337.46C381.31,333.29,378.82,331.94,375.5,333.12Z"></path><path d="M219.47,381.73a5.88,5.88,0,0,0,4.46-6.84c-.65-3.36-2.73-5.27-6.2-5.4-1.36-.05-2.73.24-4.1.26-12.58.24-25.16.52-37.74.61-3.1,0-6.2-.73-9.31-.85a6.14,6.14,0,0,0-6.59,5.38,6.27,6.27,0,0,0,4.85,7,26.35,26.35,0,0,0,3.68.57q6.1.77,12.21,1.49h22.49c1.84-.25,3.67-.52,5.51-.76C212.32,382.72,216,382.52,219.47,381.73Z"></path><path d="M159.93,8.64c.36,4,3.36,6,8.44,5.71,9.57-.55,19.14-1.32,28.72-1.38,6.57-.05,13.15,1,19.74,1.44,3.89.25,6.68-2.13,7-5.66.33-3.33-1.83-6.06-5.49-6.88a29.57,29.57,0,0,0-3-.38L203.22,0H180.73c-4.56.53-9.12,1.05-13.68,1.61S159.61,4.91,159.93,8.64Z"></path><path d="M320.7,319.26c-2.31,1.1-3.92,1.53-5.12,2.48-8.34,6.53-16.59,13.15-24.86,19.77-3.05,2.44-3.63,6-1.53,8.92s5.55,3.52,8.92,1.43a53,53,0,0,0,5.54-3.83q10.16-8.25,20.18-16.65c2.33-1.95,3.38-4.69,1.87-7.34C324.61,322.12,322.41,320.83,320.7,319.26Z"></path><path d="M93.54,341.86c-8.47-7-17.05-13.78-25.67-20.54a6.29,6.29,0,0,0-8.5.69c-2.22,2.38-2.62,6.28,0,8.43,9,7.49,18,14.91,27.46,21.84,3.83,2.82,9.24-.85,9.17-6.64C95.48,344.87,94.85,343,93.54,341.86Z"></path><path d="M356.25,275.47c-3.32-1-5.74.53-7.56,3.35-4.66,7.21-9.34,14.41-14.11,21.55-2.61,3.91-2.46,7.59.66,9.92s7,1.49,9.62-2.36c5-7.3,9.76-14.74,14.55-22.17a16.45,16.45,0,0,0,1.41-3.37C360.76,278.44,359.17,276.31,356.25,275.47Z"></path><path d="M50.53,302.22c-5.29-8.17-10.57-16.34-16-24.39a5.92,5.92,0,0,0-8-1.79c-2.9,1.57-4.54,5.16-2.79,8,5.39,8.68,11,17.26,17,25.53,1,1.39,4.73,1.87,6.69,1.22s3.14-3.26,4.67-5L51.4,305A10.92,10.92,0,0,0,50.53,302.22Z"></path><path d="M266.58,355c-2.69.95-5.22,2.33-7.91,3.3-5.84,2.11-11.76,4-17.59,6.15a6,6,0,0,0-4.07,7.43c.81,3.16,3,4.74,6.23,4.83a5.1,5.1,0,0,0,1.14-.13c9.21-3.36,18.48-6.57,27.58-10.21,3.16-1.26,4-5,2.71-8A6.18,6.18,0,0,0,266.58,355Z"></path><path d="M143.4,364.73c-8.63-3.53-17.43-6.67-26.23-9.78a6.15,6.15,0,0,0-7.69,3.62c-1.23,2.92-.45,6.55,2.54,7.74,9.11,3.66,18.31,7.14,27.65,10.13,4,1.29,7.47-2.08,7.39-7.59C146.33,368,145.22,365.48,143.4,364.73Z"></path><path d="M367.61,228.22c-2.69,8.66-5.16,17.39-7.54,26.14a6.19,6.19,0,0,0,4.29,7.66,6.11,6.11,0,0,0,7.65-3.63,54.77,54.77,0,0,0,2.5-7c2-6.92,3.87-13.88,5.44-19.55,0-4.56-2.19-7.22-5.26-7.69C371.26,223.6,368.61,225,367.61,228.22Z"></path><path d="M23.79,254q-3.51-12.79-7.35-25.49a6.15,6.15,0,0,0-7.66-4.28,6,6,0,0,0-4.53,7.47c2.31,8.78,4.72,17.56,7.6,26.17.69,2.06,3.35,3.46,4.35,4.43C21.86,262.34,25,258.28,23.79,254Z"></path><path d="M323.33,52.17c-8.16-6.71-16.41-13.33-24.79-19.78-3.55-2.74-7.36-2.18-9.57.84s-1.33,6.93,2.33,9.63c4.71,3.47,9.48,6.86,14.06,10.5,3.6,2.86,6.73,6.37,10.52,8.92a8.62,8.62,0,0,0,6.83.75c1.78-.64,2.86-3.22,4.55-5.32C325.69,55.45,324.84,53.41,323.33,52.17Z"></path><path d="M92.78,31.79c-2.31-1.77-5-1.27-7.29.51C77,39,68.46,45.71,60.11,52.62a6.21,6.21,0,0,0-.79,9.28c2.41,2.64,6.2,2.66,9.39.1,8.08-6.46,16.22-12.84,24.21-19.41,1.51-1.24,2.44-3.21,4-5.34C95.36,35.13,94.4,33,92.78,31.79Z"></path><path d="M359.71,98.8q-7.41-11.86-15.38-23.38c-1.08-1.56-3.23-2.37-5.37-3.88-2.08,1.55-4.69,2.51-5.24,4.16a9.66,9.66,0,0,0,.6,7.19c4.51,7.59,9.55,14.86,14.38,22.25,2.31,3.53,5.73,4.6,8.93,2.75S361.92,102.33,359.71,98.8Z"></path><path d="M48.76,73.66c-2.53-1.89-6.56-1.8-8.42.9C34.6,82.85,29,91.22,23.78,99.87c-2.41,4,1.1,8.9,6.94,8.87.76-.51,2.83-1.24,3.83-2.71C40,98.13,45.21,90.09,50.37,82A6.16,6.16,0,0,0,48.76,73.66Z"></path><path d="M272.2,17.81c-9.23-3.72-18.58-7.21-28-10.34-3.28-1.08-6.38,1.35-7.15,4.47a6.17,6.17,0,0,0,4,7.55c8.5,3.25,17,6.44,25.6,9.48,4.45,1.58,8.66-1.47,8.64-7.24C274.64,20.93,273.79,18.45,272.2,17.81Z"></path><path d="M140.85,7.27a3.34,3.34,0,0,0-.86.08c-9.45,3.45-19,6.73-28.28,10.49-3,1.2-3.66,4.93-2.27,7.79,1.54,3.12,4.27,4.52,7.43,3.44q13.41-4.59,26.59-9.8c3.19-1.25,4.26-4.19,3.38-7.46A5.87,5.87,0,0,0,140.85,7.27Z"></path><path d="M16.11,121.63c-1,1-3.58,2.41-4.27,4.49-2.87,8.62-5.28,17.4-7.58,26.19a6,6,0,0,0,4.62,7.42,6.18,6.18,0,0,0,7.6-4.42c2.54-8.47,5-17,7.35-25.49C25,125.49,21.81,121.47,16.11,121.63Z"></path><path d="M372.09,125.88a5.88,5.88,0,0,0-7.82-3.81c-3.44,1.17-5.12,4.36-4.07,8.09q3.54,12.57,7.24,25.1c.87,3,2.95,4.5,5.38,4.61,4.75,0,7.91-3.38,6.87-7.46C377.42,143.49,374.86,134.65,372.09,125.88Z"></path><path d="M192.64,96A96,96,0,1,0,288,192.49C288.21,139.66,245.4,96.33,192.64,96Zm-.76,179.16a83.2,83.2,0,1,1,83.29-83.23A83.34,83.34,0,0,1,191.88,275.17Z"></path><path d="M191.94,153.66A38.32,38.32,0,1,0,230.29,192,38.19,38.19,0,0,0,191.94,153.66Zm-.18,63.85a25.54,25.54,0,1,1,25.75-25.23A25.46,25.46,0,0,1,191.76,217.51Z"></path></svg>