<svg xmlns="http://www.w3.org/2000/svg" id="Layer_1" data-name="Layer 1" viewBox="0 0 371.95 167.98"><path d="M363.22,54.39c-1.08-.34-1.9-1.56-2.78-2.43-12.45-12.44-25-24.76-37.28-37.37C316.73,8,310.05,2,300.71,0h-16.5c-8.86,2.35-15.92,7.89-23.5,13.07,2.18,3.28,4.24,6.38,6.59,9.89,3.34-2.21,6.52-4.3,9.68-6.41,11.66-7.79,24.48-6.56,34.33,3.27C322.45,30.94,333.61,42.05,345.6,54h-4.75q-55.49,0-111,0a33.4,33.4,0,0,0-18.16,4.89,8.27,8.27,0,0,1-4.17,1.09q-21.56.12-43.11,0a8.45,8.45,0,0,1-4.18-1.08A33.42,33.42,0,0,0,142.1,54q-55.29.1-110.59,0h-4c.05-.54,0-.84.1-1,12-12,23.9-24.16,36-36,6.56-6.45,20.64-7.19,29.15-1.88,3.91,2.45,7.69,5.07,11.89,7.85l6.59-9.89C103.69,7.84,96.6,2.37,87.74,0H71.24c-9.34,2-16,8-22.44,14.6C37.6,26.15,26.15,37.47,14.66,48.75c-2.7,2.66-6.14,4.56-8.9,7.17C3.57,58,1.9,60.61,0,63v9.75c2.47,3.06,4.6,6.5,7.5,9.07,3.6,3.18,4.64,6.69,4.63,11.38,0,9.06-.26,18.32,1.41,27.16,4.68,24.69,24.85,43.25,49.64,47a13.42,13.42,0,0,1,2.06.68h33c4.6-1,9.28-1.67,13.78-3,30.05-9,49.6-28.58,58.9-58.49.69-2.19,1-5.29,2.58-6.25a36,36,0,0,1,11-4.14c5.06-1.1,9.51,1.36,13.75,3.79a4.54,4.54,0,0,1,1.8,2.61q15.31,56.07,72.71,65a3.35,3.35,0,0,1,1,.53h33c2.64-.61,5.3-1.16,7.92-1.83a60.12,60.12,0,0,0,45.32-58c0-5.73.21-11.48-.07-17.2-.17-3.3,1.05-5.5,3.28-7.78,3.16-3.24,5.88-6.92,8.79-10.42V63C370,59.13,367.63,55.82,363.22,54.39Zm-348.46,17-1.16.34c-.66-1.71-1.33-3.41-2.17-5.55h6.35ZM92,155.86c-10.45.13-21.17.47-31.31-1.56C39.28,150,24.23,130.36,24,108.55q-.12-12,0-24C24.09,73.64,31.75,66,42.77,66q12.65,0,25.3,0h25.3q24.55,0,49.11,0c12.12,0,19.65,7.65,19.48,19.71C161.42,123.47,129.74,155.4,92,155.86Zm105.5-69.94a32.93,32.93,0,0,0-23,.07L172.1,72.28h27.75C199.07,76.75,198.29,81.25,197.47,85.92Zm149.69,29.34a46.59,46.59,0,0,1-43.22,40.42c-14.15.84-28.45,1.47-42.42-2.65C231.58,144.2,210.11,116,210,84.94,209.94,73.82,217.58,66,228.74,66c16.87-.06,33.74,0,50.61,0q24.54,0,49.1,0c12,0,19.55,7.42,19.48,19.33C347.87,95.32,348.38,105.4,347.16,115.26Zm10.77-42.83c-1.57-2.57-2.57-4.21-3.79-6.19h6.46Z"></path><path d="M104,80.34,62.31,122,70,129.64,111.61,88Z"></path><path d="M92.47,122.06l7.28,7.39,17.72-17.74-7.28-7.35C104.24,110.31,98.37,116.18,92.47,122.06Z"></path><path d="M295.47,80.54l-40.82,40.84,7.15,8.1,41.05-41.07Z"></path><path d="M284.54,121.87l7.41,7.85,17.62-17.56-7.49-7.81Z"></path></svg>