<svg xmlns="http://www.w3.org/2000/svg" id="Layer_1" data-name="Layer 1" viewBox="0 0 302.94 383.95"><path d="M292.74,236.89c-11.74.24-23.49,0-35.24.14A4.2,4.2,0,0,1,253,234.2C249.68,227.07,246.2,220,242.7,213c-2.32-4.66-6.44-6.32-10.44-4.39s-5.25,6.23-3,10.86c2.67,5.64,5.45,11.23,8.19,16.83q13.64,27.93,27.26,55.85c3.36,6.92,1.93,13.69-3.59,17.8-7.24,5.4-16.53,2.52-21-6.54Q202.31,226,164.53,148.66c-.54-1.1-1-2.24-1.56-3.58a48.34,48.34,0,0,0,22.9-13.83c.77,1.41,1.39,2.45,1.93,3.54,3.63,7.39,7,14.91,11,22.12,1.17,2.14,3.73,4.47,6,4.81s5.29-1.18,7.06-2.87c2.36-2.25,1.78-5.5.36-8.39-5.16-10.53-10.4-21-15.38-31.65a9.61,9.61,0,0,1-.58-5.94Q203.33,83.65,180.72,64a5.92,5.92,0,0,1-2.31-5.06c.09-16.24-.08-32.49.13-48.74.06-4.61-1.26-8-5.33-10.19h-43.5c-4.06,2.21-5.39,5.58-5.33,10.19.22,16.12.05,32.23.13,48.35a6.65,6.65,0,0,1-2.54,5.7c-15,13-19.94,29.28-15.26,48.58a9.51,9.51,0,0,1-.53,5.94Q78.23,176.33,50.12,233.81c-1.11,2.28-2.31,3.28-5,3.24-11.49-.18-23-.08-34.47-.08-7.12,0-10.7,2.56-10.64,7.6S3.55,252,10.44,252q13.5,0,27,0c1,0,2.11.12,3.5.2-.67,1.47-1.14,2.6-1.68,3.69q-12,24.56-24,49.1c-4.21,8.64-4.33,17.37.08,25.93,1.58,3.06,3.91,5.74,6.06,8.83C16.29,349.9,11,360.35,5.7,370.81,2.44,377.28,3.1,379.93,9,384h4.5c1.91-2.2,4.3-4.15,5.64-6.66,5.06-9.45,9.81-19.08,14.6-28.69.87-1.73,1.67-2.54,3.92-2.35,13,1.08,23.28-4.93,29.1-16.81q18.12-37,36.09-74c1.24-2.56,2.58-3.61,5.59-3.55,11.71.22,23.42.09,35.54.09,0,4.27,0,8.23,0,12.19.06,5.09,3.09,8.53,7.46,8.56s7.46-3.42,7.52-8.49c.05-4,0-7.93,0-12.26,9.44,0,18.52,0,27.61,0,3.86,0,8.54-1.17,11.36.58s3.79,6.46,5.48,9.92c7.59,15.45,15.05,31,22.77,46.36,2.16,4.29,5.06,8.21,8,12.87a23.87,23.87,0,0,0-4.48,20.6,23.34,23.34,0,0,0,8.56,13.28c9.67,7.63,21.08,6.71,33-2.86,4.19,8.25,8.19,16.51,12.57,24.56,1.36,2.51,3.73,4.46,5.64,6.66h4.5c5.87-4,6.55-6.68,3.27-13.15-7.94-15.69-15.85-31.41-23.9-47.05-1.14-2.22-1.07-3.5.65-5.47,8.32-9.49,9.85-20.26,4.63-31.68-4.71-10.33-9.9-20.43-14.88-30.63-.53-1.11-1-2.23-1.85-4h4.66c8.74,0,17.49-.2,26.23.08,4.62.14,8-1.24,10.19-5.33v-4.5C300.74,238.14,297.35,236.8,292.74,236.89ZM139.64,15.18h23.64V54.1H139.64Zm11.84,53.28A31.47,31.47,0,1,1,120,100,31.66,31.66,0,0,1,151.48,68.46ZM53.76,321.92c-3.55,7.28-9.28,10.65-15.7,9.3-9-1.89-13.38-11.15-9.17-19.85,8.53-17.64,17.18-35.22,25.77-52.83L115,135.08c.59-1.19,1.28-2.34,2.1-3.84A48.74,48.74,0,0,0,140,145.08c-.59,1.36-1,2.5-1.58,3.6Q96.08,235.31,53.76,321.92ZM159,236.85c0-4,0-8,0-11.95,0-5.14-3-8.56-7.34-8.66S144,219.66,144,225c0,3.85,0,7.7,0,11.77h-31.9c13.08-26.79,26.05-53.35,39.4-80.67l39.46,80.77Zm93.83,108.83a9,9,0,0,1,.2-17.95,9,9,0,1,1-.2,17.95Z"></path><path d="M220.84,177.6a7.45,7.45,0,0,0-7.65,7.14,7.67,7.67,0,0,0,7.51,7.75,7.45,7.45,0,0,0,7.37-7.42A7.28,7.28,0,0,0,220.84,177.6Z"></path><path d="M151.37,107.37a7.36,7.36,0,0,0,7.57-7.19A7.48,7.48,0,1,0,144,100,7.37,7.37,0,0,0,151.37,107.37Z"></path></svg>