<svg id="Layer_1" data-name="Layer 1" xmlns="http://www.w3.org/2000/svg" viewBox="0 0 323.52 235.31"><path d="M15.24,143.7C42,170.13,68.48,196.81,95.07,223.4c1.34,1.34,2.69,2.68,4.1,3.94a30.69,30.69,0,0,0,18.24,7.82c10.89,1,19.86-3,27.54-10.66q83.82-84,167.76-167.83c1.12-1.11,2.22-2.25,3.24-3.45,12.68-14.86,9-38.2-7.69-48.4-13.21-8.09-29.4-5.87-41,5.72q-72,71.93-143.86,143.91a22,22,0,0,0-2.26,3.27c-1.55-1.48-2.39-2.25-3.19-3.05q-26-26-52.07-52c-4-4-7.93-8.17-12.17-12-14.13-12.58-36.14-10.1-47.43,5.1C2.8,100.46,1.35,105.88,0,111.38v7C1.48,129,7.9,136.45,15.24,143.7Z"/></svg>