<svg id="Layer_1" data-name="Layer 1" xmlns="http://www.w3.org/2000/svg" viewBox="0 0 50.5 50.5"><defs><style>.cls-1{fill:none;stroke:#FFFFFF;stroke-miterlimit:10;stroke-width:2.5px;}</style></defs><path class="cls-1" d="M30.22,35.25s4.05-2.32,5.11-2.87a3,3,0,0,1,2.81-.3c1,.62,9.47,6.24,10.18,6.74s1,1.93.07,3.32S42.92,49.06,41,49s-9.84-.24-24.81-15.21S1.06,10.89,1,9,6.46,2.57,7.86,1.6a2.44,2.44,0,0,1,3.32.07c.56.78,6.12,9.21,6.73,10.18a3,3,0,0,1-.29,2.82c-.56,1.06-2.88,5.11-2.88,5.11s1.64,2.78,7.16,8.31S30.22,35.25,30.22,35.25Z" transform="translate(0.25 0.25)"/></svg>