<svg id="Layer_1" data-name="Layer 1" xmlns="http://www.w3.org/2000/svg" viewBox="0 0 221.85 248.74"><path d="M221.82,106.64v-.14l0-28.45c0-6.44-2.58-9-9.17-9q-14.12,0-28.24,0H172.69a4.42,4.42,0,0,1-4.44-4.3l-.07-2.29c-.13-4.24-.25-8.25-.68-12.25C164.51,22.16,139.8.09,111.15,0h-.1C81.82,0,57.43,21.64,54.32,50.33c-.43,4-.54,8-.66,12.23l-.06,2.21a4.43,4.43,0,0,1-4.45,4.31H10.26C2.14,69.08,0,71.18,0,79.27V156.9q0,7.28,0,14.56c0,10.71,0,21.78,0,32.69.17,26.21,18.56,44.53,44.71,44.55h3.37c22.71,0,45.83,0,69.1,0,20.17,0,40.47,0,60.69-.06,25.29-.05,43.73-18.34,43.83-43.49C221.89,172.34,221.85,138.94,221.82,106.64Zm-136-83.93c14.34-10.3,30.05-11.35,45.42-3.05,16.15,8.72,23.5,23.45,22.46,45a4.44,4.44,0,0,1-4.44,4.21H72.7a4.45,4.45,0,0,1-4.44-4.14C67,45.8,72.77,32.05,85.78,22.71ZM207.45,203.78c0,18.47-12,30.41-30.52,30.42q-19.67,0-39.33,0c-30.29-.06-61.62-.12-92.67.2h-.35a29.75,29.75,0,0,1-30.32-30.56c.29-27.4.23-55.21.17-82.11V121q0-16.35,0-32.69v-.16a4.45,4.45,0,0,1,4.45-4.44H49.3a4.44,4.44,0,0,1,4.44,4.45v1.43c0,4.32,0,8.4,0,12.62s2,6.94,5.27,7.82a7,7,0,0,0,6.14-1,8,8,0,0,0,3-6.34c.13-4.14.1-8.22.07-12.53V88.35a4.44,4.44,0,0,1,4.44-4.48h76.5a4.46,4.46,0,0,1,4.44,4.45V98.53c0,.39,0,.79,0,1.29,0,1.09,0,2.12.05,3.17.34,4.54,3.32,7.47,7.41,7.3s6.82-3.06,7-7.33c.11-3.12.09-6.3.07-9.39v-.16c0-1.31,0-2.62,0-3.93V88.29a4.44,4.44,0,0,1,4.44-4.44H203a4.44,4.44,0,0,1,4.44,4.44v34.08Q207.46,163.08,207.45,203.78Z"/></svg>