<?xml version="1.0" encoding="utf-8"?>
<!-- Generator: Adobe Illustrator 24.2.0, SVG Export Plug-In . SVG Version: 6.00 Build 0)  -->
<svg version="1.1" id="Layer_1" xmlns="http://www.w3.org/2000/svg" xmlns:xlink="http://www.w3.org/1999/xlink" x="0px" y="0px"
	 viewBox="0 0 31.9 38.6" style="enable-background:new 0 0 31.9 38.6;" xml:space="preserve">
<style type="text/css">
	.st0{stroke:#000000;stroke-width:0.25;stroke-miterlimit:10;}
</style>
<path class="st0" d="M5,15.3c0.3,0,0.5-0.2,0.5-0.6l0,0v-2c0-1.9,1.5-3.4,3.4-3.4h12.7l-3.1,3.1c-0.2,0.2-0.2,0.5,0,0.7c0,0,0,0,0,0
	c0.1,0.1,0.2,0.2,0.4,0.2c0.1,0,0.3-0.1,0.4-0.2l4-4c0,0,0.1-0.1,0.1-0.2c0.1-0.1,0.1-0.3,0-0.4c0-0.1-0.1-0.1-0.1-0.2l-4-4
	c-0.2-0.2-0.5-0.2-0.7,0c0,0,0,0,0,0c-0.2,0.2-0.2,0.5,0,0.7c0,0,0,0,0,0l3.1,3.1H9c-2.5,0-4.5,2-4.5,4.5v2C4.4,15,4.6,15.3,5,15.3
	C4.9,15.3,5,15.3,5,15.3z"/>
<path class="st0" d="M23,16.2c-0.3,0-0.5,0.2-0.5,0.5v2c0,1.9-1.5,3.5-3.4,3.5c0,0,0,0,0,0H6.3l3.1-3.1c0.2-0.2,0.2-0.6,0-0.8
	c-0.2-0.2-0.6-0.2-0.8,0l0,0l-4,4c0,0.1-0.1,0.1-0.1,0.2c-0.1,0.1-0.1,0.3,0,0.4c0,0.1,0.1,0.1,0.1,0.2l4,4c0.1,0.1,0.2,0.2,0.4,0.2
	c0.1,0,0.3-0.1,0.4-0.2c0.2-0.2,0.2-0.5,0-0.7c0,0,0,0,0,0l-3.1-3.1H19c2.5,0,4.5-2,4.6-4.5v-2C23.5,16.4,23.3,16.2,23,16.2L23,16.2
	z"/>
</svg>
