<svg id="Layer_1" data-name="Layer 1" xmlns="http://www.w3.org/2000/svg" viewBox="0 0 383.82 337.29"><path d="M377,116.62c-11-.05-22-.1-33,0a8.68,8.68,0,0,1-7.65-3.59Q296.34,62.84,256.18,12.7c-2.8-3.51-5.36-7.27-10.46-7.57h-5.25c-3.2.83-5.92,2.12-7.62,5.36-3.11,6-1.14,10.8,2.61,15.49q34.38,43,68.77,86c1,1.22,2.32,2.26,2.65,4.57H88.72c0-2,1.09-2.77,1.83-3.7Q110.45,88,130.32,63.12c10.07-12.57,20-25.27,30.24-37.67C166.63,18.11,164.77,7,155,5.13h-6c-3.81.69-6.24,3.16-8.57,6.08Q99.71,62.32,58.85,113.35a8.08,8.08,0,0,1-7,3.3c-11.12-.11-22.23-.08-33.35,0-7.13,0-10.47,2.5-12.63,9.19v51C8,183.62,11.31,186,18.78,186c2.62,0,5.25.11,7.86,0s4.09,1.1,4.77,3.66c1.54,5.79,3.26,11.52,4.9,17.28q17.85,62.61,35.79,125.2c1.44,5,3.62,9.31,9.45,10.26H313.94c5.64-.91,7.94-5,9.35-9.9q7.43-26.08,14.92-52.16,12.85-45,25.64-90c.89-3.15,2.37-4.69,5.75-4.39,2.35.21,4.74.06,7.11,0,7.47-.08,10.74-2.42,12.94-9.27v-51C387.49,119.12,384.15,116.64,377,116.62ZM320.4,257.23c-5.64,19.76-11.33,39.5-16.9,59.27-.69,2.44-1.51,3.52-4.39,3.52q-101.37-.16-202.75,0c-2.22,0-3.51-.25-4.23-2.76q-18.54-65.4-37.25-130.75a10.7,10.7,0,0,1-.2-1.27H340.94C334.05,209.37,327.23,233.3,320.4,257.23Zm46.84-113.42c-.28,5.48-.15,11,0,16.48,0,1.82-.53,2.51-2.31,2.26a13.09,13.09,0,0,0-1.88,0q-165.28,0-330.57.08c-3.4,0-4.41-.8-4.21-4.21.31-5.23.19-10.49,0-15.73-.07-2.15.58-2.71,2.69-2.67,7.24.13,14.49.05,21.73.05H198.13q82.64,0,165.28-.08C366.53,140,367.41,140.68,367.24,143.81Z" transform="translate(-5.84 -5.13)"/><path d="M117.53,244.41c2.48,14.76,4.86,29.53,7.53,44.25a10.89,10.89,0,0,0,12.17,8.72,11.4,11.4,0,0,0,9.86-11.6c-.07-.63-.14-1.51-.28-2.37-3.67-22-7.28-44-11.07-66-1.16-6.75-6.71-10.76-12.79-9.79-6.34,1-10.21,6.51-9.21,13.56C114.85,228.93,116.23,236.67,117.53,244.41Z" transform="translate(-5.84 -5.13)"/><path d="M258.66,297.34c6.93,1.07,12-3.71,13.33-12.37,1.79-11.33,3.75-22.63,5.63-33.94,1.76-10.58,3.5-21.16,5.12-30.92.2-6.48-3.63-11.36-9.11-12.45a11.33,11.33,0,0,0-12.56,7.22,27,27,0,0,0-1.05,4.73c-3.45,20.54-6.82,41.08-10.31,61.61C248.2,290.1,251.49,296.24,258.66,297.34Z" transform="translate(-5.84 -5.13)"/><path d="M186.5,284.69c0,7.59,4.51,12.71,11.17,12.76S209,292.35,209,284.84q0-32.38,0-64.77c0-7.5-4.67-12.63-11.35-12.56s-11.11,5.14-11.12,12.42c0,10.85,0,21.71,0,32.57S186.49,274,186.5,284.69Z" transform="translate(-5.84 -5.13)"/></svg>