<?xml version="1.0" encoding="utf-8"?>
<!-- Generator: Adobe Illustrator 24.2.0, SVG Export Plug-In . SVG Version: 6.00 Build 0)  -->
<svg version="1.1" id="Layer_1" xmlns="http://www.w3.org/2000/svg" xmlns:xlink="http://www.w3.org/1999/xlink" x="0px" y="0px"
	 viewBox="0 0 437.5 417.7" style="enable-background:new 0 0 437.5 417.7;" xml:space="preserve">
<style type="text/css">
	.st0{fill:#5928C0;}
</style>
<path class="st0" d="M431.5,197.2L378,156.7l19.5-64c1.3-4.2,0.6-8.9-2-12.5c-1.4-1.7-3.1-3.2-5-4.3c-1.8-1.1-3.9-1.7-6-1.8l-67.5-1
	L295,9.7c-1-4.3-4-7.3-9-9c-2.1-0.7-4.3-0.8-6.5-0.5c-2.2,0.3-4.3,1.1-6,2.5l-55,38.5l-55-38.5c-1.7-1.4-3.8-2.2-6-2.5
	c-2.2-0.3-4.4-0.2-6.5,0.5c-4.3,1.3-7.3,4.3-9,9l-22,63.5l-67,1c-2.3,0-4.5,0.6-6.5,1.8c-1.9,1.1-3.6,2.5-5,4.3
	c-2.6,3.6-3.4,8.3-2,12.5l19.5,64L5.5,197.2c-3.6,2.8-5.6,7.2-5.5,11.8c-0.2,4.4,1.9,8.7,5.5,11.3L59,260.7l-19.5,64
	c-1.4,4.2-0.6,8.9,2,12.5c2.5,3.9,6.9,6.2,11.5,6l67,1.5l22,63.5c1.7,4.7,4.7,7.5,9,8.5c2.1,0.7,4.3,0.9,6.5,0.8
	c2.2-0.1,4.3-0.9,6-2.3l55-38.5l55,38.5c2.4,1.6,5.1,2.4,8,2.5c1.5-0.1,3.1-0.4,4.5-1c4.3-1,7.3-3.8,9-8.5l22-63.5l67-1.5
	c5.3,0,9.3-2,11.8-6c2.5-3.7,3.1-8.3,1.8-12.5l-19.5-64l53.5-40.5c1.7-1.4,3.2-3.1,4.3-5c1.2-2,1.8-4.2,1.8-6.5
	C437.5,204.3,435.5,200.5,431.5,197.2z M131,218.7c-6.3-3.7-11-7.5-14-11.5c-3.6-4.6-6.3-9.9-8-15.5c-2-6-3-12.2-3-18.5
	c0-6.2,0.8-12.3,2.5-18.3c1.7-5.9,4.6-11.5,8.5-16.3c3-4.3,7.7-8.2,14-11.5c13-5.3,27.5-5.3,40.5,0c5.7,2.4,10.6,6.4,14,11.5
	c3.7,4,6.4,9.3,8.3,16c1.7,6,2.7,12.2,2.8,18.5c-0.1,6.2-1,12.3-2.8,18.3c-1.8,6.5-4.4,11.8-7.8,15.8s-8.2,7.8-14.5,11.5
	c-5,2.7-11.7,4-20,4C144.5,222.7,137.5,221.4,131,218.7z M178,291.2c-5.2,1-10.5,1.5-15.8,1.5c-5.6,0-11.2-0.5-16.8-1.5L259,125.7
	c5.4-1,11-1.5,16.5-1.5c5.4,0.1,10.7,0.6,16,1.5L178,291.2z M328,263.2c-1.4,5.7-4.1,11.1-8,15.5c-4.1,4.7-9,8.6-14.5,11.5
	c-5,2.7-11.7,4-20,4s-15-1.3-20-4c-5.3-2.5-10.1-6.1-14-10.5c-3.3-4-6-9.4-8-16.3c-4-12.2-4-25.3,0-37.5c2-6.8,4.7-12.1,8-15.8
	c3.7-4.8,8.5-8.5,14-11c5.7-3,12.4-4.5,20.3-4.5s14.4,1.5,19.8,4.5c5,2,9.8,5.7,14.5,11c3.9,4.8,6.8,10.3,8.5,16.3
	c1.7,5.9,2.5,12.1,2.5,18.3C331,250.9,330,257.2,328,263.2z"/>
<path class="st0" d="M285.5,217.2c-5.3,0-9.4,2.6-12.3,7.8c-2.8,5.2-4.3,11.8-4.3,19.8c0,8,1.3,14.6,4,19.8c2.3,4.9,7.3,8,12.8,7.8
	c5.8,0,10-2.3,12.5-7s3.8-11.5,3.8-20.5s-1.3-15.8-3.8-20.5S291.5,217.2,285.5,217.2z"/>
<path class="st0" d="M164,193.2c2.7-5.3,4-12.2,4-20.5c0-8.3-1.3-14.9-4-19.8c-2.7-4.8-6.8-7.2-12.5-7.3c-5.7,0-9.8,2.4-12.5,7.3
	s-4,11.6-4,20.3c-0.1,6.9,1.3,13.7,4,20c2.7,5,6.8,7.5,12.3,7.5S161,198.2,164,193.2z"/>
</svg>
