<?xml version="1.0" encoding="utf-8"?>
<!-- Generator: Adobe Illustrator 24.2.0, SVG Export Plug-In . SVG Version: 6.00 Build 0)  -->
<svg version="1.1" id="Layer_1" xmlns="http://www.w3.org/2000/svg" xmlns:xlink="http://www.w3.org/1999/xlink" x="0px" y="0px"
	 viewBox="0 0 360.4 254" style="enable-background:new 0 0 360.4 254;" xml:space="preserve">
<style type="text/css">
	.st0{fill:#0b0b4d;}
</style>
<g>
	<path class="st0" d="M358.7,71.3c-7.8-44.3-49-79.4-99.2-69.6C222,8.9,193.8,41.6,192,80.2c-1.9,38.5,22.8,73.2,59.8,84
		c2.3,0.6,4.5,1.2,7,1.8c-0.5,1.2-0.8,2.1-1.2,3c-8.5,20.4-20.9,38.3-35.2,55c-5.9,6.9-6.6,15.2-2,22.1c4.6,7,12.3,9.6,20.8,6.9
		c60.3-19.4,99.7-58.6,114-121.1C359.8,112,362.3,91.7,358.7,71.3z M257.8,220.9c-0.6,0.3-1.3,0.5-2,0.8c8.5-13,16.4-26.1,22.7-40.2
		c2.7-6.2,5.6-12.3,4.1-19.4c-2.2-10-8.3-16.4-18.2-18.8c-15.3-3.6-28.1-11.3-37.1-24.3c-13.4-19.4-15.5-40.2-5.1-61.4
		c10.3-21,27.7-32.5,51.2-33.6c30.9-1.4,58.8,21.3,61.8,52.6C340.1,128.5,321,191.2,257.8,220.9z"/>
	<path class="st0" d="M68.1,1.6C33.6,8.3,6.9,35.9,1.1,71.3c-5.5,33.5,11,68.3,41,85c7.6,4.3,16.2,7,25.2,10.8
		c-3.7,7.1-6.9,15.2-11.6,22.3c-8.1,12.2-17,23.8-25.7,35.5c-4.9,6.6-5.5,14.4-1.3,21c4.1,6.6,12.1,9.7,19.5,7.4
		c33-9.8,61.3-27,83.3-53.9c19-23.2,29.7-50.1,34.3-79.5c2.6-16.8,4.3-33.7,0.9-50.7C158,26.3,117.6-7.9,68.1,1.6z M140.3,125.8
		c-9.3,42.9-33.2,74.8-72.8,94.4c-1.1,0.5-2.2,1-3.3,1.4l-0.5-0.5c0.7-1.1,1.5-2.1,2.2-3.2c9-12.7,16.6-26.4,22.7-40.8
		c6.5-15.9-0.7-30.1-17.5-34.2c-20.6-5.1-35.1-17.5-43-37.2c-15.1-37.6,12.5-79.9,53-81.6c30.7-1.3,57.4,20.8,62.1,51.1
		C146.1,92.3,143.9,109.2,140.3,125.8z"/>
</g>
</svg>
