<?xml version="1.0" encoding="utf-8"?>
<!-- Generator: Adobe Illustrator 24.2.0, SVG Export Plug-In . SVG Version: 6.00 Build 0)  -->
<svg version="1.1" id="Layer_1" xmlns="http://www.w3.org/2000/svg" xmlns:xlink="http://www.w3.org/1999/xlink" x="0px" y="0px"
	 viewBox="0 0 507.3 443" style="enable-background:new 0 0 507.3 443;" xml:space="preserve">
<style type="text/css">
	.st0{stroke:#000000;stroke-width:5;stroke-miterlimit:10;}
</style>
<path class="st0" d="M436,156.5c-0.4-2.3-0.9-4.6-1.2-6.9c-0.9-5.4-1.8-10.4-3.2-15.4c-11.6-41.6-49.7-73.2-92.6-76.9
	c-33.8-3-63.3,7.7-87.9,31.7c-0.4,0.4-0.8,0.7-1.2,1.1l-2.7,2.5l-2.8-2.5c-0.6-0.5-1.2-1-1.7-1.6c-31.8-30-68.1-39-107.9-26.8
	c-40.4,12.4-65.6,40.6-74.9,84c-0.5,2.3-0.8,4.6-1.2,7.1c-0.1,1-0.3,2-0.5,3v16.6l0.2,0.9c0.2,0.7,0.3,1.4,0.5,2.2
	c0.6,2.7,1.2,5.5,1.7,8.2c1,5.9,2.4,11.7,4.1,17.4c7.8,24.1,21.7,47.2,43.7,72.7c34.2,39.6,77.5,75.8,132.4,110.4
	c2,1.4,4.4,2.2,6.9,2.3c2.4-0.1,4.7-0.9,6.6-2.3c4.2-2.9,8.6-5.7,12.8-8.5l0.2-0.1c7.4-4.9,15.1-10,22.4-15.2
	c44.2-31.8,77.1-61.9,103.6-94.9c19.6-24.5,31.8-46.5,38.4-69.3c1.4-5.3,2.6-10.7,3.5-16.2c0.4-2.4,0.9-4.8,1.3-7.2v-15.9L436,156.5
	z M404,216.5c-10.5,20.4-25.1,39.9-45.9,61.4c-29.2,30.2-64.3,58.6-107.3,86.7c-1.2,0.7-2.5,1.1-3.9,1.1c-1.1,0-2.3-0.3-3.2-0.9
	c-56.6-37.2-95.9-70.9-127.4-109.2c-18.8-22.8-29.9-42.4-35.8-63.2c-1.6-6.2-2.9-12.5-3.9-18.9c-0.5-2.8-0.9-5.7-1.5-8.4l-0.6-3
	l1.5-0.3l0.1-1.6c1-20.7,9.2-40.5,23.1-55.9c14.8-16.5,35.2-26.9,57.2-29c33.4-3.2,60.9,8.9,81.9,35.9c2.8,3.6,5.8,5.5,8.8,5.5
	s5.8-2,8.5-5.6c29.5-40,85.9-48.5,125.9-19c19.3,14.2,32.1,35.6,35.6,59.3C420.1,172.5,416,193.1,404,216.5L404,216.5z"/>
</svg>
